<svg width="800" height="800" viewBox="0 0 800 800" fill="none" xmlns="http://www.w3.org/2000/svg">
  <defs>
    <linearGradient id="g" x1="120" y1="210" x2="680" y2="390" gradientUnits="userSpaceOnUse">
      <stop stop-color="#30D17A"/>
      <stop offset="0.5" stop-color="#0B1018"/>
      <stop offset="1" stop-color="#1A59FF"/>
    </linearGradient>
  </defs>
  <rect width="800" height="800" rx="64" fill="#07090D"/>
  <rect x="88" y="190" width="624" height="170" rx="32" fill="url(#g)"/>
  <path d="M188 284C224 236 284 228 340 258C298 256 264 274 240 312C216 350 190 362 154 352C166 332 178 309 188 284Z" fill="#1BEA86"/>
  <path d="M194 284C230 236 290 228 346 258C304 256 270 274 246 312C222 350 196 362 160 352C172 332 184 309 194 284Z" fill="#2E86FF" opacity="0.8"/>
  <text x="486" y="304" fill="white" font-size="82" font-family="Arial, Helvetica, sans-serif" font-weight="700" text-anchor="middle">KLING AI</text>
</svg>
