<svg width="800" height="800" viewBox="0 0 800 800" fill="none" xmlns="http://www.w3.org/2000/svg">
  <defs>
    <linearGradient id="g" x1="110" y1="120" x2="690" y2="680" gradientUnits="userSpaceOnUse">
      <stop stop-color="#FF8ACD"/>
      <stop offset="1" stop-color="#FF5A5F"/>
    </linearGradient>
  </defs>
  <rect width="800" height="800" rx="64" fill="url(#g)"/>
  <circle cx="400" cy="312" r="124" fill="rgba(255,255,255,0.18)"/>
  <path d="M322 366C322 316 360 276 410 276C444 276 470 292 486 320C500 306 520 298 542 298C586 298 620 334 620 378C620 446 558 494 400 570C242 494 180 446 180 378C180 334 214 298 258 298C282 298 304 308 320 326C321 339 322 352 322 366Z" fill="white"/>
  <text x="400" y="678" fill="white" font-size="112" font-family="Arial, Helvetica, sans-serif" font-weight="800" text-anchor="middle">Meitu VIP</text>
</svg>
